<?xml version="1.0" encoding="UTF-8"?>
<svg width="20px" height="28px" viewBox="0 0 20 28" version="1.1" xmlns="http://www.w3.org/2000/svg" xmlns:xlink="http://www.w3.org/1999/xlink">
    <title>shape-radiant</title>
    <g id="Symbols" stroke="none" stroke-width="1" fill="none" fill-rule="evenodd" stroke-linejoin="round">
        <g id="Desktop-Category-Navigation---Diamonds-Updated" transform="translate(-558.000000, -281.000000)" stroke="#333333">
            <g id="Group" transform="translate(278.000000, 239.000000)">
                <g id="shape-radiant" transform="translate(280.000000, 43.000000)">
                    <polygon id="Path" points="5.46565511 4.96614525 9.90458332 4.38513966 4.83957827 2.10905028"></polygon>
                    <polygon id="Path" points="0.634886658 2.78301676 3.46452265 0.0551955307 4.83957827 2.10905028 2.67939626 4.23988827"></polygon>
                    <polygon id="Path" points="2.67939626 4.23988827 5.46565511 4.96614525 4.83957827 2.10905028"></polygon>
                    <polygon id="Path" points="2.67939626 4.23988827 5.46565511 4.96614525 4.71378453 12.9854749"></polygon>
                    <polygon id="Path" points="0.634886658 2.78301676 0.634886658 23.1864804 2.67939626 21.7296089 2.67939626 4.23988827"></polygon>
                    <polygon id="Path" points="2.67939626 4.23988827 2.67939626 21.7296089 4.71378453 12.9854749"></polygon>
                    <polygon id="Path" points="5.46565511 21.003352 9.90458332 21.5843575 4.83957827 23.8604469"></polygon>
                    <polygon id="Path" points="0.634886658 23.1864804 3.46452265 25.9157542 4.83957827 23.8604469 2.67939626 21.7296089"></polygon>
                    <polygon id="Path" points="2.67939626 21.7296089 5.46565511 21.003352 4.83957827 23.8604469"></polygon>
                    <polygon id="Path" points="2.67939626 21.7296089 5.46565511 21.003352 4.71378453 12.9854749"></polygon>
                    <polygon id="Path" points="4.83957827 2.10905028 9.90458332 4.38513966 14.9681425 2.10905028"></polygon>
                    <polygon id="Path" points="14.3420656 4.96614525 9.90458332 4.38513966 14.9681425 2.10905028"></polygon>
                    <polygon id="Path" points="19.1728341 2.78301676 16.3431981 0.0551955307 14.9681425 2.10905028 17.1283245 4.23988827"></polygon>
                    <polygon id="Path" points="17.1283245 4.23988827 14.3420656 4.96614525 14.9681425 2.10905028"></polygon>
                    <polygon id="Path" points="17.1283245 4.23988827 14.3420656 4.96614525 15.0939362 12.9854749"></polygon>
                    <polygon id="Path" points="19.1728341 2.78301676 19.1728341 23.1864804 17.1283245 21.7296089 17.1283245 4.23988827"></polygon>
                    <polygon id="Path" points="14.3420656 4.96614525 9.90458332 4.38513966 5.46565511 4.96614525 4.71378453 12.9854749 5.46565511 21.003352 9.90458332 21.5843575 14.3420656 21.003352 15.0939362 12.9854749"></polygon>
                    <polygon id="Path" points="17.1283245 4.23988827 17.1283245 21.7296089 15.0939362 12.9854749"></polygon>
                    <polygon id="Path" points="14.9681425 23.8604469 4.83957827 23.8604469 3.46452265 25.9157542 16.3431981 25.9157542"></polygon>
                    <polygon id="Path" points="9.90458332 21.5843575 4.83957827 23.8604469 14.9681425 23.8604469"></polygon>
                    <polygon id="Path" points="14.3420656 21.003352 9.90458332 21.5843575 14.9681425 23.8604469"></polygon>
                    <polygon id="Path" points="19.1728341 23.1864804 16.3431981 25.9157542 14.9681425 23.8604469 17.1283245 21.7296089"></polygon>
                    <polygon id="Path" points="17.1283245 21.7296089 14.3420656 21.003352 14.9681425 23.8604469"></polygon>
                    <polygon id="Path" points="17.1283245 21.7296089 14.3420656 21.003352 15.0939362 12.9854749"></polygon>
                    <polygon id="Path" points="3.46452265 0.0551955307 4.83957827 2.10905028 14.9681425 2.10905028 16.3431981 0.0551955307"></polygon>
                </g>
            </g>
        </g>
    </g>
</svg>