<?xml version="1.0" encoding="UTF-8"?>
<svg width="28px" height="28px" viewBox="0 0 28 28" version="1.1" xmlns="http://www.w3.org/2000/svg" xmlns:xlink="http://www.w3.org/1999/xlink">
    <title>shape-asscher</title>
    <g id="Symbols" stroke="none" stroke-width="1" fill="none" fill-rule="evenodd">
        <g id="Desktop-Category-Navigation---Diamonds-Updated" transform="translate(-554.000000, -321.000000)">
            <g id="Group" transform="translate(278.000000, 239.000000)">
                <g id="shape-asscher" transform="translate(277.000000, 83.000000)">
                    <polygon id="Path" stroke="#333333" stroke-linejoin="round" points="8.01081081 6.48243243 6.69324324 4.83108108 4.83108108 6.69324324 6.5 7.99324324"></polygon>
                    <polygon id="Path" stroke="#333333" stroke-linejoin="round" points="6.69324324 4.83108108 4.97162162 2.61756757 2.63513514 4.97162162 4.83108108 6.69324324"></polygon>
                    <polygon id="Path" stroke="#333333" stroke-linejoin="round" points="4.97162162 2.61756757 2.89864865 0.105405405 0.122972973 2.88108108 2.63513514 4.97162162"></polygon>
                    <polygon id="Path" stroke="#333333" stroke-linejoin="round" points="2.89864865 0.105405405 4.97162162 2.61756757 21.1337838 2.61756757 23.2067568 0.105405405"></polygon>
                    <polygon id="Path" stroke="#333333" stroke-linejoin="round" points="4.97162162 2.61756757 6.69324324 4.83108108 13.0527027 4.83108108 19.3945946 4.83108108 21.1337838 2.61756757"></polygon>
                    <polygon id="Path" stroke="#333333" stroke-linejoin="round" points="6.69324324 4.83108108 8.01081081 6.48243243 13.0527027 6.48243243 18.0945946 6.48243243 19.3945946 4.83108108"></polygon>
                    <polygon id="Path" stroke="#333333" stroke-linejoin="round" points="18.0945946 6.48243243 19.3945946 4.83108108 21.2743243 6.69324324 19.6054054 7.99324324"></polygon>
                    <polygon id="Path" stroke="#333333" stroke-linejoin="round" points="19.3945946 4.83108108 21.1337838 2.61756757 23.4702703 4.97162162 21.2743243 6.69324324"></polygon>
                    <polygon id="Path" stroke="#333333" stroke-linejoin="round" points="21.1337838 2.61756757 23.2067568 0.105405405 25.9824324 2.88108108 23.4702703 4.97162162"></polygon>
                    <polygon id="Path" stroke="#333333" stroke-linejoin="round" points="0.122972973 2.88108108 0.122972973 23.2067568 2.63513514 21.1162162 2.63513514 13.0351351 2.63513514 4.97162162"></polygon>
                    <polygon id="Path" stroke="#333333" stroke-linejoin="round" points="2.63513514 4.97162162 2.63513514 21.1162162 4.83108108 19.3945946 4.83108108 13.0351351 4.83108108 6.69324324"></polygon>
                    <polygon id="Path" stroke="#333333" stroke-linejoin="round" points="4.83108108 6.69324324 4.83108108 13.0351351 4.83108108 19.3945946 6.5 18.0945946 6.5 13.0351351 6.5 7.99324324"></polygon>
                    <polygon id="Path" stroke="#333333" stroke-linejoin="round" points="8.01081081 19.5878378 6.69324324 21.2567568 4.83108108 19.3945946 6.5 18.0945946"></polygon>
                    <polygon id="Path" points="6.69324324 21.2567568 4.97162162 23.4527027 2.63513514 21.1162162 4.83108108 19.3945946"></polygon>
                    <polygon id="Path" stroke="#333333" stroke-linejoin="round" points="6.69324324 21.2567568 4.97162162 23.4527027 2.63513514 21.1162162 4.83108108 19.3945946"></polygon>
                    <polygon id="Path" stroke="#333333" stroke-linejoin="round" points="4.97162162 23.4527027 2.89864865 25.9824324 0.122972973 23.2067568 2.63513514 21.1162162"></polygon>
                    <polygon id="Path" stroke="#333333" stroke-linejoin="round" points="23.4702703 4.97162162 23.4702703 13.0351351 23.4702703 21.1162162 25.9824324 23.2067568 25.9824324 2.88108108"></polygon>
                    <polygon id="Path" stroke="#333333" stroke-linejoin="round" points="21.2743243 6.69324324 21.2743243 13.0351351 21.2743243 19.3945946 23.4702703 21.1162162 23.4702703 13.0351351 23.4702703 4.97162162"></polygon>
                    <polygon id="Path" stroke="#333333" stroke-linejoin="round" points="19.6054054 7.99324324 19.6054054 13.0351351 19.6054054 18.0945946 21.2743243 19.3945946 21.2743243 13.0351351 21.2743243 6.69324324"></polygon>
                    <polygon id="Path" points="2.89864865 25.9824324 4.97162162 23.4527027 21.1337838 23.4527027 23.2067568 25.9824324"></polygon>
                    <polygon id="Path" stroke="#333333" stroke-linejoin="round" points="2.89864865 25.9824324 4.97162162 23.4527027 21.1337838 23.4527027 23.2067568 25.9824324"></polygon>
                    <polygon id="Path" stroke="#333333" stroke-linejoin="round" points="4.97162162 23.4527027 6.69324324 21.2567568 13.0527027 21.2567568 19.3945946 21.2567568 21.1337838 23.4527027"></polygon>
                    <polygon id="Path" stroke="#333333" stroke-linejoin="round" points="6.69324324 21.2567568 8.01081081 19.5878378 13.0527027 19.5878378 18.0945946 19.5878378 19.3945946 21.2567568"></polygon>
                    <polygon id="Path" stroke="#333333" stroke-linejoin="round" points="18.0945946 19.5878378 19.3945946 21.2567568 21.2743243 19.3945946 19.6054054 18.0945946"></polygon>
                    <polygon id="Path" stroke="#333333" stroke-linejoin="round" points="19.3945946 21.2567568 21.1337838 23.4527027 23.4702703 21.1162162 21.2743243 19.3945946"></polygon>
                    <polygon id="Path" points="21.1337838 23.4527027 23.2067568 25.9824324 25.9824324 23.2067568 23.4702703 21.1162162"></polygon>
                    <polygon id="Path" stroke="#333333" stroke-linejoin="round" points="21.1337838 23.4527027 23.2067568 25.9824324 25.9824324 23.2067568 23.4702703 21.1162162"></polygon>
                    <polygon id="Path" stroke="#333333" stroke-linejoin="round" points="18.0945946 6.48243243 8.01081081 6.48243243 6.5 7.99324324 6.5 18.0945946 8.01081081 19.5878378 18.0945946 19.5878378 19.6054054 18.0945946 19.6054054 7.99324324"></polygon>
                </g>
            </g>
        </g>
    </g>
</svg>