<?xml version="1.0" encoding="UTF-8"?>
<svg width="18px" height="28px" viewBox="0 0 18 28" version="1.1" xmlns="http://www.w3.org/2000/svg" xmlns:xlink="http://www.w3.org/1999/xlink">
    <title>shape-pear</title>
    <g id="Symbols" stroke="none" stroke-width="1" fill="none" fill-rule="evenodd" stroke-linejoin="round">
        <g id="Desktop-Category-Navigation---Diamonds-Updated" transform="translate(-422.000000, -281.000000)" stroke="#333333">
            <g id="Group" transform="translate(278.000000, 239.000000)">
                <g id="shape-pear" transform="translate(145.000000, 43.000000)">
                    <path d="M5.00534759,25.2227807 L5.60737968,24.0618182 L8.00855615,25.8693048 C7.56037502,25.8629462 7.11366667,25.8164141 6.67379679,25.7302674 C6.10231074,25.6163871 5.54345424,25.4464016 5.00534759,25.2227807 Z" id="Path"></path>
                    <path d="M10.9672727,25.2227807 L10.366631,24.0618182 L8.00299465,25.8693048 C8.43918815,25.8624837 8.87385372,25.8159456 9.30160428,25.7302674 C9.8721995,25.6164301 10.4301377,25.4464406 10.9672727,25.2227807 Z" id="Path"></path>
                    <polygon id="Path" points="7.98770053 6.88235294 5.37796791 5.50171123 7.99048128 0.0417112299"></polygon>
                    <path d="M1.70459893,8.36588235 L5.38491979,5.5031016 L3.85550802,4.3226738 C3.85550802,4.3226738 3.14502674,5.51839572 2.78074866,6.09957219 C2.41647059,6.68074866 1.70459893,8.36588235 1.70459893,8.36588235 Z" id="Path"></path>
                    <polygon id="Path" points="5.09989305 10.6252406 7.98770053 6.88235294 5.37796791 5.50171123"></polygon>
                    <polygon id="Path" points="2.17871658 13.8773262 5.09989305 10.6252406 5.37796791 5.50171123 1.70459893 8.36588235"></polygon>
                    <path d="M3.86106952,4.3226738 L5.37796791,5.50171123 L7.99048128,0.0417112299 C7.99048128,0.0417112299 6.52224599,1.11229947 5.6768984,2.00770053 C5.02377139,2.74059666 4.41730218,3.51377525 3.86106952,4.3226738 L3.86106952,4.3226738 Z" id="Path"></path>
                    <path d="M0.278074866,13.5561497 L2.1773262,13.8773262 L1.70459893,8.36588235 C1.70459893,8.36588235 1.00941176,10.3416043 0.731336898,11.3329412 C0.538995534,12.0649985 0.387672746,12.8072229 0.278074866,13.5561497 L0.278074866,13.5561497 Z" id="Path"></path>
                    <path d="M0.0152941176,17.3796791 L2.17871658,13.8787166 L0.278074866,13.5561497 C0.278074866,13.5561497 0.139037433,14.8074866 0.0792513369,15.6722995 C0.0194652406,16.5371123 0.0152941176,17.3796791 0.0152941176,17.3796791 Z" id="Path"></path>
                    <polygon id="Path" points="3.75818182 17.5506952 5.09989305 10.6252406 2.17176471 13.8731551"></polygon>
                    <polygon id="Path" points="2.42203209 20.8041711 3.75818182 17.5506952 2.17176471 13.8731551 0.0152941176 17.3782888"></polygon>
                    <path d="M1.08588235,21.5049198 L2.42203209,20.8097326 L0.0152941176,17.3796791 C0.0152941176,17.3796791 0.154331551,19.0995722 0.358716578,19.8823529 C0.535745759,20.4501908 0.779857836,20.9948922 1.08588235,21.5049198 L1.08588235,21.5049198 Z" id="Path"></path>
                    <polygon id="Path" points="4.78983957 21.1350802 3.75818182 17.5506952 2.42203209 20.8041711"></polygon>
                    <path d="M5.60320856,24.0618182 L4.78983957,21.1336898 L5.60320856,24.0618182 Z" id="Path"></path>
                    <polygon id="Path" points="2.47486631 23.3972193 5.60320856 24.0618182 4.78983957 21.1350802 2.42203209 20.8041711"></polygon>
                    <path d="M1.08588235,21.5049198 C1.08588235,21.5049198 1.4140107,22.033262 1.73796791,22.4879144 C1.87700535,22.6950802 2.47486631,23.3972193 2.47486631,23.3972193 L2.42203209,20.8041711 L1.08588235,21.5049198 Z" id="Path"></path>
                    <path d="M5.00534759,25.2227807 C4.56965631,25.0222572 4.15511511,24.778656 3.76791444,24.495615 C3.3132412,24.1599356 2.88256769,23.7929107 2.47903743,23.3972193 L5.60737968,24.0618182 L5.00534759,25.2227807 Z" id="Path"></path>
                    <polygon id="Path" points="7.98909091 6.87957219 10.6016043 5.50171123 7.98909091 0.0417112299"></polygon>
                    <path d="M14.2749733,8.36588235 L10.5946524,5.5031016 L12.1240642,4.3226738 C12.1240642,4.3226738 12.840107,5.51839572 13.2029947,6.09957219 C13.5658824,6.68074866 14.2749733,8.36588235 14.2749733,8.36588235 Z" id="Path"></path>
                    <polygon id="Path" points="10.8796791 10.6252406 7.98909091 6.87957219 10.6016043 5.50171123"></polygon>
                    <polygon id="Path" points="13.8008556 13.8773262 10.8796791 10.6252406 10.6016043 5.50171123 14.2749733 8.36588235"></polygon>
                    <path d="M12.1185027,4.3226738 L10.6016043,5.50171123 L7.98909091,0.0417112299 C7.98909091,0.0417112299 9.45454545,1.11229947 10.3040642,2.00770053 C10.9569399,2.74044878 11.5629555,3.51364103 12.1185027,4.3226738 Z" id="Path"></path>
                    <path d="M15.7014973,13.5561497 L13.8008556,13.8773262 L14.2749733,8.36588235 C14.2749733,8.36588235 14.9701604,10.3416043 15.2482353,11.3329412 C15.4409806,12.0649043 15.592308,12.8071514 15.7014973,13.5561497 L15.7014973,13.5561497 Z" id="Path"></path>
                    <path d="M15.9642781,17.3796791 L13.8008556,13.8787166 L15.7014973,13.5575401 C15.7014973,13.5575401 15.8405348,14.808877 15.8989305,15.6736898 C15.9573262,16.5385027 15.9642781,17.3796791 15.9642781,17.3796791 Z" id="Path"></path>
                    <polygon id="Path" points="12.2213904 17.8148663 10.8796791 10.8894118 13.8091979 14.1387166"></polygon>
                    <polygon id="Path" points="13.5575401 20.8041711 12.2213904 17.5506952 13.8091979 13.8731551 15.9642781 17.3782888"></polygon>
                    <path d="M14.8936898,21.5049198 L13.5575401,20.8097326 L15.9642781,17.3796791 C15.9642781,17.3796791 15.8321925,19.0995722 15.6208556,19.8823529 C15.4438264,20.4501908 15.1997144,20.9948922 14.8936898,21.5049198 L14.8936898,21.5049198 Z" id="Path"></path>
                    <polygon id="Path" points="11.1897326 21.1350802 12.2213904 17.5506952 13.5575401 20.8041711"></polygon>
                    <polygon id="Path" points="10.377754 24.0618182 7.97518717 22.9203209 11.1897326 21.1350802"></polygon>
                    <polygon id="Path" points="13.5047059 23.3972193 10.377754 24.0618182 11.1897326 21.1350802 13.5575401 20.8041711"></polygon>
                    <path d="M14.8936898,21.5049198 C14.8936898,21.5049198 14.5655615,22.033262 14.2429947,22.4879144 C14.095615,22.6950802 13.5047059,23.3972193 13.5047059,23.3972193 L13.5575401,20.8041711 L14.8936898,21.5049198 Z" id="Path"></path>
                    <path d="M10.9839572,25.2227807 C11.4196485,25.0222572 11.8341897,24.778656 12.2213904,24.495615 C12.6760636,24.1599356 13.1067371,23.7929107 13.5102674,23.3972193 L10.3833155,24.0618182 L10.9839572,25.2227807 Z" id="Path"></path>
                    <polygon id="Path" points="10.3805348 24.0590374 7.97935829 22.9217112 5.60042781 24.0590374 8.00160428 25.8693048"></polygon>
                    <polygon id="Path" points="12.2213904 17.5506952 10.8796791 10.6252406 7.98909091 6.87957219 5.09989305 10.6252406 3.75818182 17.5506952 4.7884492 21.1322995 7.97796791 22.9189305 11.1897326 21.1350802"></polygon>
                    <polygon id="Path" points="4.78983957 21.1350802 7.97518717 22.9203209 5.60042781 24.0590374"></polygon>
                </g>
            </g>
        </g>
    </g>
</svg>