<?xml version="1.0" encoding="UTF-8"?>
<svg width="28px" height="28px" viewBox="0 0 28 28" version="1.1" xmlns="http://www.w3.org/2000/svg" xmlns:xlink="http://www.w3.org/1999/xlink">
    <title>shape-round</title>
    <g id="Symbols" stroke="none" stroke-width="1" fill="none" fill-rule="evenodd" stroke-linejoin="round">
        <g id="Desktop-Category-Navigation---Diamonds-Updated" transform="translate(-277.000000, -281.000000)" stroke="#333333">
            <g id="Group" transform="translate(278.000000, 239.000000)">
                <g id="shape-round" transform="translate(0.000000, 43.000000)">
                    <path d="M25.5817391,12.4347826 C25.3669565,9.1710559 24.7226087,7.13465839 22.0192547,4.18583851 C19.847205,1.81838509 17.6024845,0.600745342 13.988323,0.203478261 C7.83391304,-0.471552795 1.98795031,3.52049689 0.507080745,9.33093168 C-0.161490683,11.9648447 -0.048447205,15.4498137 1.04968944,17.9819876 C2.24124062,20.7731233 4.3489425,23.0745059 7.02484472,24.5062112 C12.5236025,27.5277019 19.3304348,25.7254658 23.0124224,20.9114286 C24.8379583,18.4753935 25.7475719,15.4744122 25.5817391,12.4347826 C25.515528,11.4173913 25.5946584,12.6237267 25.5817391,12.4347826 Z" id="Path"></path>
                    <polygon id="Path" points="9.93329193 5.91217391 4.9868323 5.15801242 5.83950311 10.0980124 9.87515528 5.99291925"></polygon>
                    <polygon id="Path" points="0.957639752 8.04869565 4.9868323 5.15801242 5.83950311 10.0980124 1.69726708 13.0242236"></polygon>
                    <polygon id="Path" points="7.59490683 1.25801242 4.9868323 5.15801242 9.93329193 5.91217391 12.8336646 1.85552795"></polygon>
                    <polygon id="Path" points="5.83465839 10.104472 1.7021118 13.0209938 1.69726708 13.0209938 1.70049689 13.0226087 1.69726708 13.0242236 1.7021118 13.0242236 5.83465839 15.9391304 5.83950311 15.9455901 5.83950311 13.0242236 5.83950311 13.0209938 5.83950311 10.0980124"></polygon>
                    <polygon id="Path" points="9.93329193 20.1314286 4.9868323 20.887205 5.83950311 15.9455901"></polygon>
                    <polygon id="Path" points="1.07714286 17.9593789 4.9868323 20.887205 5.83950311 15.9455901 1.69726708 13.0209938"></polygon>
                    <polygon id="Path" points="7.6821118 24.8308075 4.9868323 20.887205 9.93329193 20.1314286 12.8223602 24.1719255"></polygon>
                    <polygon id="Path" points="15.703354 5.91217391 12.8207453 1.8684472 12.8207453 1.86198758 12.8175155 1.86521739 12.8159006 1.86198758 12.8159006 1.8684472 9.93329193 5.91217391"></polygon>
                    <polygon id="Path" points="15.703354 5.91217391 20.6498137 5.15801242 19.795528 10.0980124 15.7614907 5.99291925"></polygon>
                    <polygon id="Path" points="24.6790062 8.04869565 20.6498137 5.15801242 19.795528 10.0980124 23.937764 13.0242236"></polygon>
                    <polygon id="Path" points="18.0401242 1.25801242 20.6498137 5.15801242 15.703354 5.91217391 12.8029814 1.85552795"></polygon>
                    <polygon id="Path" points="12.8255901 24.1573913 15.703354 20.1314286 9.93329193 20.1314286 12.809441 24.1573913 12.809441 24.18 12.8175155 24.1686957 12.8255901 24.18"></polygon>
                    <polygon id="Path" points="19.8019876 10.104472 23.9329193 13.0209938 23.937764 13.0209938 23.9361491 13.0226087 23.937764 13.0242236 23.9329193 13.0242236 19.8019876 15.9391304 19.795528 15.9455901 19.795528 13.0242236 19.795528 13.0209938 19.795528 10.0980124"></polygon>
                    <polygon id="Path" points="15.703354 20.1314286 20.6498137 20.887205 19.795528 15.9455901"></polygon>
                    <polygon id="Path" points="15.7614907 5.99291925 15.703354 5.91217391 12.8498137 5.91217391 12.8498137 5.91217391 9.93329193 5.91217391 9.87515528 5.99291925 5.8378882 10.0980124 5.8378882 15.9455901 9.93167702 20.1314286 15.7017391 20.1314286 19.793913 15.9455901 19.793913 10.0980124"></polygon>
                    <polygon id="Path" points="24.5578882 17.9593789 20.6498137 20.887205 19.795528 15.9455901 23.937764 13.0209938"></polygon>
                    <polygon id="Path" points="17.9545342 24.8308075 20.6498137 20.887205 15.703354 20.1314286 12.8142857 24.1719255"></polygon>
                </g>
            </g>
        </g>
    </g>
</svg>