<?xml version="1.0" encoding="utf-8"?>
<!-- Generator: Adobe Illustrator 22.0.1, SVG Export Plug-In . SVG Version: 6.00 Build 0)  -->
<svg version="1.1" id="Layer_1" xmlns="http://www.w3.org/2000/svg" xmlns:xlink="http://www.w3.org/1999/xlink" x="0px" y="0px"
	 viewBox="0 0 198.6 214.5" style="enable-background:new 0 0 198.6 214.5;" xml:space="preserve">
<style type="text/css">
	.st0{fill:none;stroke:#000000;stroke-width:3.69;stroke-linejoin:round;}
</style>
<title>shape-marquise</title>
<g id="Diamonds">
	<polygon class="st0" points="85.3,37.7 99.3,14 99.3,44.5 	"/>
	<polygon class="st0" points="81.7,64.2 99.3,44.5 85.3,37.7 	"/>
	<polygon class="st0" points="59.3,54.3 85.3,37.7 81.7,64.2 61.3,81.2 	"/>
	<polygon class="st0" points="81.7,64.2 72.2,107.2 61.3,81.2 	"/>
	<path class="st0" d="M49,79.1l12.3,2.1l-2-26.9c0,0-4.3,8.9-5.5,11.7C52.3,69.3,49,79.1,49,79.1z"/>
	<path class="st0" d="M44.3,107.2c0,0,1.8-12,2.3-15.5c0.6-3.8,2.5-12.7,2.5-12.7l12.3,2.1L44.3,107.2z"/>
	<path class="st0" d="M69.7,37.5c-3.6,4.7-10.5,16.8-10.5,16.8l26-16.5l-10.9-6.2C73.4,32.8,71.2,35.6,69.7,37.5z"/>
	<path class="st0" d="M83.5,23.1c-4.8,4.2-5.3,4-9,8.5l10.8,6.2l14-23.7C93.5,16,88.1,19.1,83.5,23.1z"/>
	<polygon class="st0" points="113.3,37.7 99.3,14 99.3,44.5 	"/>
	<polygon class="st0" points="116.9,64.2 99.3,44.5 113.3,37.7 	"/>
	<polygon class="st0" points="139.3,54.3 113.3,37.7 116.9,64.2 137.2,81.2 	"/>
	<polygon class="st0" points="116.9,64.2 126.4,107.2 137.2,81.2 	"/>
	<path class="st0" d="M149.5,79.1l-12.3,2.1l2-26.9c0,0,4.3,8.9,5.5,11.7C146.2,69.3,149.5,79.1,149.5,79.1z"/>
	<path class="st0" d="M154.3,107.2c0,0-1.7-12-2.2-15.5c-0.6-3.8-2.5-12.7-2.5-12.7l-12.3,2.1L154.3,107.2z"/>
	<path class="st0" d="M128.8,37.5c3.6,4.7,10.4,16.8,10.4,16.8l-26-16.5l10.9-6.2C125.1,32.8,127.4,35.6,128.8,37.5z"/>
	<path class="st0" d="M115,23.1c4.8,4.2,5.3,4,9,8.5l-10.8,6.2L99.3,14C105.1,16,110.4,19.1,115,23.1z"/>
	<polygon class="st0" points="85.3,176.7 99.3,200.4 99.3,170 	"/>
	<polygon class="st0" points="81.7,150.2 99.3,170 85.3,176.7 	"/>
	<polygon class="st0" points="59.3,160.1 85.3,176.7 81.7,150.2 61.3,133.3 	"/>
	<polygon class="st0" points="72.2,107.2 61.3,81.2 44.3,107.2 61.3,133.3 	"/>
	<polygon class="st0" points="81.7,150.2 72.2,107.2 61.3,133.3 	"/>
	<path class="st0" d="M49,135.3l12.3-2.1l-2,26.9c0,0-4.3-8.9-5.5-11.7C52.3,145.2,49,135.3,49,135.3z"/>
	<path class="st0" d="M44.3,107.2c0,0,1.7,12,2.3,15.5c0.6,3.8,2.5,12.6,2.5,12.6l12.3-2.1L44.3,107.2z"/>
	<path class="st0" d="M69.7,177c-3.6-4.7-10.5-16.8-10.5-16.8l26,16.6l-10.9,6.2C73.4,181.6,71.2,178.9,69.7,177z"/>
	<path class="st0" d="M83.5,191.4c-4.8-4.2-5.3-4-9-8.5l10.8-6.1l14,23.7C93.5,198.5,88.1,195.4,83.5,191.4z"/>
	<polygon class="st0" points="113.3,176.7 99.3,200.4 99.3,170 	"/>
	<polygon class="st0" points="116.9,150.2 99.3,170 113.3,176.7 	"/>
	<polygon class="st0" points="139.3,160.1 113.3,176.7 116.9,150.2 137.2,133.3 	"/>
	<polygon class="st0" points="154.3,107.2 137.2,81.2 126.4,107.2 137.2,133.3 	"/>
	<polygon class="st0" points="116.9,150.2 126.4,107.2 137.2,133.3 	"/>
	<path class="st0" d="M149.5,135.3l-12.3-2.1l2,26.9c0,0,4.3-8.9,5.5-11.7C146.2,145.2,149.5,135.3,149.5,135.3z"/>
	<path class="st0" d="M154.3,107.2c0,0-1.7,12-2.3,15.5c-0.6,3.8-2.5,12.6-2.5,12.6l-12.3-2.1L154.3,107.2z"/>
	<polygon class="st0" points="126.4,107.2 116.9,64.2 99.3,44.5 81.7,64.2 72.2,107.2 81.7,150.2 99.3,170 116.9,150.2 	"/>
	<path class="st0" d="M128.8,177c3.6-4.7,10.5-16.8,10.5-16.8l-26,16.6l10.9,6.2C125.1,181.6,127.4,178.9,128.8,177z"/>
	<path class="st0" d="M115,191.4c4.8-4.2,5.3-4,9-8.5l-10.8-6.1l-14,23.7C105.1,198.5,110.4,195.4,115,191.4z"/>
</g>
<g id="Diamonds-2">
	<polygon class="st0" points="85.3,37.7 99.3,14 99.3,44.5 	"/>
	<polygon class="st0" points="81.7,64.2 99.3,44.5 85.3,37.7 	"/>
	<polygon class="st0" points="59.3,54.3 85.3,37.7 81.7,64.2 61.3,81.2 	"/>
	<polygon class="st0" points="81.7,64.2 72.2,107.2 61.3,81.2 	"/>
	<path class="st0" d="M49,79.1l12.3,2.1l-2-26.9c0,0-4.3,8.9-5.5,11.7C52.3,69.3,49,79.1,49,79.1z"/>
	<path class="st0" d="M44.3,107.2c0,0,1.8-12,2.3-15.5c0.6-3.8,2.5-12.7,2.5-12.7l12.3,2.1L44.3,107.2z"/>
	<path class="st0" d="M69.7,37.5c-3.6,4.7-10.5,16.8-10.5,16.8l26-16.5l-10.9-6.2C73.4,32.8,71.2,35.6,69.7,37.5z"/>
	<path class="st0" d="M83.5,23.1c-4.8,4.2-5.3,4-9,8.5l10.8,6.2l14-23.7C93.5,16,88.1,19.1,83.5,23.1z"/>
	<polygon class="st0" points="113.3,37.7 99.3,14 99.3,44.5 	"/>
	<polygon class="st0" points="116.9,64.2 99.3,44.5 113.3,37.7 	"/>
	<polygon class="st0" points="139.3,54.3 113.3,37.7 116.9,64.2 137.2,81.2 	"/>
	<polygon class="st0" points="116.9,64.2 126.4,107.2 137.2,81.2 	"/>
	<path class="st0" d="M149.5,79.1l-12.3,2.1l2-26.9c0,0,4.3,8.9,5.5,11.7C146.2,69.3,149.5,79.1,149.5,79.1z"/>
	<path class="st0" d="M154.3,107.2c0,0-1.7-12-2.2-15.5c-0.6-3.8-2.5-12.7-2.5-12.7l-12.3,2.1L154.3,107.2z"/>
	<path class="st0" d="M128.8,37.5c3.6,4.7,10.4,16.8,10.4,16.8l-26-16.5l10.9-6.2C125.1,32.8,127.4,35.6,128.8,37.5z"/>
	<path class="st0" d="M115,23.1c4.8,4.2,5.3,4,9,8.5l-10.8,6.2L99.3,14C105.1,16,110.4,19.1,115,23.1z"/>
	<polygon class="st0" points="85.3,176.7 99.3,200.4 99.3,170 	"/>
	<polygon class="st0" points="81.7,150.2 99.3,170 85.3,176.7 	"/>
	<polygon class="st0" points="59.3,160.1 85.3,176.7 81.7,150.2 61.3,133.3 	"/>
	<polygon class="st0" points="72.2,107.2 61.3,81.2 44.3,107.2 61.3,133.3 	"/>
	<polygon class="st0" points="81.7,150.2 72.2,107.2 61.3,133.3 	"/>
	<path class="st0" d="M49,135.3l12.3-2.1l-2,26.9c0,0-4.3-8.9-5.5-11.7C52.3,145.2,49,135.3,49,135.3z"/>
	<path class="st0" d="M44.3,107.2c0,0,1.7,12,2.3,15.5c0.6,3.8,2.5,12.6,2.5,12.6l12.3-2.1L44.3,107.2z"/>
	<path class="st0" d="M69.7,177c-3.6-4.7-10.5-16.8-10.5-16.8l26,16.6l-10.9,6.2C73.4,181.6,71.2,178.9,69.7,177z"/>
	<path class="st0" d="M83.5,191.4c-4.8-4.2-5.3-4-9-8.5l10.8-6.1l14,23.7C93.5,198.5,88.1,195.4,83.5,191.4z"/>
	<polygon class="st0" points="113.3,176.7 99.3,200.4 99.3,170 	"/>
	<polygon class="st0" points="116.9,150.2 99.3,170 113.3,176.7 	"/>
	<polygon class="st0" points="139.3,160.1 113.3,176.7 116.9,150.2 137.2,133.3 	"/>
	<polygon class="st0" points="154.3,107.2 137.2,81.2 126.4,107.2 137.2,133.3 	"/>
	<polygon class="st0" points="116.9,150.2 126.4,107.2 137.2,133.3 	"/>
	<path class="st0" d="M149.5,135.3l-12.3-2.1l2,26.9c0,0,4.3-8.9,5.5-11.7C146.2,145.2,149.5,135.3,149.5,135.3z"/>
	<path class="st0" d="M154.3,107.2c0,0-1.7,12-2.3,15.5c-0.6,3.8-2.5,12.6-2.5,12.6l-12.3-2.1L154.3,107.2z"/>
	<polygon class="st0" points="126.4,107.2 116.9,64.2 99.3,44.5 81.7,64.2 72.2,107.2 81.7,150.2 99.3,170 116.9,150.2 	"/>
	<path class="st0" d="M128.8,177c3.6-4.7,10.5-16.8,10.5-16.8l-26,16.6l10.9,6.2C125.1,181.6,127.4,178.9,128.8,177z"/>
	<path class="st0" d="M115,191.4c4.8-4.2,5.3-4,9-8.5l-10.8-6.1l-14,23.7C105.1,198.5,110.4,195.4,115,191.4z"/>
</g>
</svg>
