<?xml version="1.0" encoding="UTF-8"?>
<svg width="28px" height="28px" viewBox="0 0 28 28" version="1.1" xmlns="http://www.w3.org/2000/svg" xmlns:xlink="http://www.w3.org/1999/xlink">
    <title>shape-princess</title>
    <g id="Symbols" stroke="none" stroke-width="1" fill="none" fill-rule="evenodd">
        <g id="Desktop-Category-Navigation---Diamonds-Updated" transform="translate(-417.000000, -361.000000)">
            <g id="Group" transform="translate(278.000000, 239.000000)">
                <g id="shape-princess" transform="translate(140.000000, 123.000000)">
                    <polygon id="Path" points="18.584507 7.49422535 22.9898592 7.49422535 25.7509859 0.172112676 18.584507 2.93323944"></polygon>
                    <polygon id="Path" stroke="#333333" stroke-linejoin="round" points="18.584507 7.49422535 22.9898592 7.49422535 25.7509859 0.172112676 18.584507 2.93323944"></polygon>
                    <polygon id="Path" stroke="#333333" stroke-linejoin="round" points="12.9249296 0.168450704 12.9249296 0.172112676 25.7509859 0.172112676 25.7509859 12.998169 25.7546479 12.998169 25.7546479 0.168450704"></polygon>
                    <polygon id="Path" points="18.584507 2.93323944 12.9249296 5.30985915 18.584507 7.49422535"></polygon>
                    <polygon id="Path" stroke="#333333" stroke-linejoin="round" points="18.584507 2.93323944 12.9249296 5.30985915 18.584507 7.49422535"></polygon>
                    <polygon id="Path" points="18.584507 7.49422535 20.6132394 12.998169 22.9898592 7.49422535"></polygon>
                    <polygon id="Path" stroke="#333333" stroke-linejoin="round" points="18.584507 7.49422535 20.6132394 12.998169 22.9898592 7.49422535"></polygon>
                    <polygon id="Path" points="7.2671831 7.49422535 2.86183099 7.49422535 0.0988732394 0.172112676 7.2671831 2.93323944"></polygon>
                    <polygon id="Path" stroke="#333333" stroke-linejoin="round" points="7.2671831 7.49422535 2.86183099 7.49422535 0.0988732394 0.172112676 7.2671831 2.93323944"></polygon>
                    <polygon id="Path" stroke="#333333" stroke-linejoin="round" points="12.9249296 0.168450704 12.9249296 0.172112676 0.0988732394 0.172112676 0.0988732394 12.998169 0.0970422535 12.998169 0.0970422535 0.168450704"></polygon>
                    <polygon id="Path" points="0.0988732394 0.172112676 7.2671831 2.93323944 18.584507 2.93323944 25.7509859 0.172112676"></polygon>
                    <polygon id="Path" stroke="#333333" stroke-linejoin="round" points="0.0988732394 0.172112676 7.2671831 2.93323944 18.584507 2.93323944 25.7509859 0.172112676"></polygon>
                    <polygon id="Path" points="7.2671831 2.93323944 12.9249296 5.30985915 18.584507 2.93323944"></polygon>
                    <polygon id="Path" stroke="#333333" stroke-linejoin="round" points="7.2671831 2.93323944 12.9249296 5.30985915 18.584507 2.93323944"></polygon>
                    <polygon id="Path" points="7.2671831 2.93323944 12.9249296 5.30985915 7.2671831 7.49422535"></polygon>
                    <polygon id="Path" stroke="#333333" stroke-linejoin="round" points="7.2671831 2.93323944 12.9249296 5.30985915 7.2671831 7.49422535"></polygon>
                    <polygon id="Path" stroke="#333333" stroke-linejoin="round" points="7.2671831 7.49422535 5.23661972 12.998169 2.86183099 7.49422535"></polygon>
                    <polygon id="Path" points="18.584507 18.5002817 22.9898592 18.5002817 25.7509859 25.8242254 18.584507 23.0612676"></polygon>
                    <polygon id="Path" stroke="#333333" stroke-linejoin="round" points="18.584507 18.5002817 22.9898592 18.5002817 25.7509859 25.8242254 18.584507 23.0612676"></polygon>
                    <polygon id="Path" stroke="#333333" stroke-linejoin="round" points="12.9249296 25.8260563 12.9249296 25.8242254 25.7509859 25.8242254 25.7509859 12.998169 25.7546479 12.998169 25.7546479 25.8260563"></polygon>
                    <polygon id="Path" points="18.584507 23.0612676 12.9249296 20.6864789 18.584507 18.5002817"></polygon>
                    <polygon id="Path" stroke="#333333" stroke-linejoin="round" points="18.584507 23.0612676 12.9249296 20.6864789 18.584507 18.5002817"></polygon>
                    <polygon id="Path" points="22.9898592 7.49422535 22.9898592 18.5002817 25.7509859 25.8242254 25.7509859 0.172112676"></polygon>
                    <polygon id="Path" stroke="#333333" stroke-linejoin="round" points="22.9898592 7.49422535 22.9898592 18.5002817 25.7509859 25.8242254 25.7509859 0.172112676"></polygon>
                    <polygon id="Path" stroke="#333333" stroke-linejoin="round" points="20.6132394 12.998169 22.9898592 18.5002817 22.9898592 7.49422535"></polygon>
                    <polygon id="Path" stroke="#333333" stroke-linejoin="round" points="18.584507 18.5002817 20.6132394 12.998169 22.9898592 18.5002817"></polygon>
                    <polygon id="Path" stroke="#333333" stroke-linejoin="round" points="18.584507 7.49422535 12.9249296 5.30985915 7.2671831 7.49422535 5.23661972 12.998169 7.2671831 18.5002817 12.9249296 20.6864789 18.584507 18.5002817 20.6132394 12.998169"></polygon>
                    <polygon id="Path" points="7.2671831 18.5002817 2.86183099 18.5002817 0.0988732394 25.8242254 7.2671831 23.0612676"></polygon>
                    <polygon id="Path" stroke="#333333" stroke-linejoin="round" points="7.2671831 18.5002817 2.86183099 18.5002817 0.0988732394 25.8242254 7.2671831 23.0612676"></polygon>
                    <polygon id="Path" stroke="#333333" stroke-linejoin="round" points="12.9249296 25.8260563 12.9249296 25.8242254 0.0988732394 25.8242254 0.0988732394 12.998169 0.0970422535 12.998169 0.0970422535 25.8260563"></polygon>
                    <polygon id="Path" points="0.0988732394 25.8242254 7.2671831 23.0612676 18.584507 23.0612676 25.7509859 25.8242254"></polygon>
                    <polygon id="Path" stroke="#333333" stroke-linejoin="round" points="0.0988732394 25.8242254 7.2671831 23.0612676 18.584507 23.0612676 25.7509859 25.8242254"></polygon>
                    <polygon id="Path" stroke="#333333" stroke-linejoin="round" points="7.2671831 23.0612676 12.9249296 20.6864789 18.584507 23.0612676"></polygon>
                    <polygon id="Path" points="7.2671831 23.0612676 12.9249296 20.6864789 7.2671831 18.5002817"></polygon>
                    <polygon id="Path" stroke="#333333" stroke-linejoin="round" points="7.2671831 23.0612676 12.9249296 20.6864789 7.2671831 18.5002817"></polygon>
                    <polygon id="Path" stroke="#333333" stroke-linejoin="round" points="0.0988732394 0.172112676 0.0988732394 25.8242254 2.86183099 18.5002817 2.86183099 7.49422535"></polygon>
                    <polygon id="Path" points="2.86183099 7.49422535 2.86183099 18.5002817 5.23661972 12.998169"></polygon>
                    <polygon id="Path" stroke="#333333" stroke-linejoin="round" points="2.86183099 7.49422535 2.86183099 18.5002817 5.23661972 12.998169"></polygon>
                    <polygon id="Path" stroke="#333333" stroke-linejoin="round" points="7.2671831 18.5002817 5.23661972 12.998169 2.86183099 18.5002817"></polygon>
                </g>
            </g>
        </g>
    </g>
</svg>