<?xml version="1.0" encoding="UTF-8"?>
<svg width="21px" height="28px" viewBox="0 0 21 28" version="1.1" xmlns="http://www.w3.org/2000/svg" xmlns:xlink="http://www.w3.org/1999/xlink">
    <title>shape-oval</title>
    <g id="Symbols" stroke="none" stroke-width="1" fill="none" fill-rule="evenodd" stroke-linejoin="round">
        <g id="Desktop-Category-Navigation---Diamonds-Updated" transform="translate(-421.000000, -321.000000)" stroke="#333333">
            <g id="Group" transform="translate(278.000000, 239.000000)">
                <g id="shape-oval" transform="translate(144.000000, 83.000000)">
                    <polygon id="Path" points="6.56021053 3.70705263 9.36957895 4.33789474 5.43263158 8.24747368"></polygon>
                    <polygon id="Path" points="2.05536842 5.33 6.56021053 3.70705263 5.43263158 8.24747368 3.58526316 9.91694737"></polygon>
                    <polygon id="Path" points="0.819684211 9.01926316 3.58526316 9.91694737 2.05536842 5.33"></polygon>
                    <polygon id="Path" points="0.132736842 13.0287368 0.819684211 9.01926316 3.58526316 9.91694737"></polygon>
                    <path d="M5.08094737,1.68589474 L6.56021053,3.70705263 L9.36957895,0.0629473684 C8.79388224,0.0783150397 8.22412659,0.183585937 7.68094737,0.374947368 C5.94715789,0.968842105 5.08094737,1.68589474 5.08094737,1.68589474 Z" id="Path"></path>
                    <polygon id="Path" points="9.36957895 4.33789474 9.36957895 0.0629473684 6.56021053 3.70705263"></polygon>
                    <path d="M2.05263158,5.33684211 C2.61211753,4.27196305 3.33626539,3.30212216 4.19831579,2.46315789 C4.67178947,2.00747368 5.08094737,1.68863158 5.08094737,1.68863158 L6.56021053,3.70705263 L2.05263158,5.33684211 Z" id="Path"></path>
                    <polygon id="Path" points="12.1775789 3.70705263 9.36957895 4.33789474 13.3051579 8.24747368"></polygon>
                    <polygon id="Path" points="16.6837895 5.33 12.1775789 3.70705263 13.3051579 8.24747368 15.1525263 9.91694737"></polygon>
                    <polygon id="Path" points="3.58526316 9.91694737 4.34063158 13.0287368 5.43263158 8.24747368"></polygon>
                    <polygon id="Path" points="13.3051579 8.24747368 14.3998947 13.0287368 15.1525263 9.91694737"></polygon>
                    <polygon id="Path" points="17.9181053 9.01926316 15.1525263 9.91694737 16.6837895 5.33"></polygon>
                    <polygon id="Path" points="18.6064211 13.0287368 17.9181053 9.01926316 15.1525263 9.91694737"></polygon>
                    <path d="M13.6568421,1.68589474 L12.1789474,3.70705263 L9.36957895,0.0629473684 C9.94482427,0.0783676426 10.5141211,0.183639073 11.0568421,0.374947368 C12.7906316,0.968842105 13.6568421,1.68589474 13.6568421,1.68589474 Z" id="Path"></path>
                    <polygon id="Path" points="9.36957895 4.33789474 9.36957895 0.0629473684 12.1775789 3.70705263"></polygon>
                    <path d="M16.6837895,5.33684211 C16.1241586,4.27241218 15.400539,3.30266036 14.5394737,2.46315789 C14.0673684,2.00747368 13.6568421,1.68863158 13.6568421,1.68863158 L12.1789474,3.70705263 L16.6837895,5.33684211 Z" id="Path"></path>
                    <polygon id="Path" points="6.56021053 22.3504211 9.36957895 21.7195789 5.43263158 17.8086316"></polygon>
                    <polygon id="Path" points="2.05536842 20.7274737 6.56021053 22.3504211 5.43263158 17.8086316 3.58526316 16.1391579"></polygon>
                    <polygon id="Path" points="0.819684211 17.0368421 3.58526316 16.1391579 2.05536842 20.7274737"></polygon>
                    <polygon id="Path" points="0.132736842 13.0273684 0.819684211 17.0368421 3.58526316 16.1391579"></polygon>
                    <path d="M5.08094737,24.3702105 L6.56021053,22.3504211 L9.36957895,26 C8.79388224,25.9846323 8.22412659,25.8793614 7.68094737,25.688 C5.94715789,25.0872632 5.08094737,24.3702105 5.08094737,24.3702105 Z" id="Path"></path>
                    <polygon id="Path" points="9.36957895 21.7195789 9.36957895 25.9931579 6.56021053 22.3504211"></polygon>
                    <path d="M2.05263158,20.7274737 C2.61120725,21.792211 3.33443187,22.7620524 4.19557895,23.6011579 C4.66905263,24.0568421 5.07821053,24.3756842 5.07821053,24.3756842 L6.55747368,22.3558947 L2.05263158,20.7274737 Z" id="Path"></path>
                    <polygon id="Path" points="14.3998947 13.0287368 14.3998947 13.0273684 14.3998947 13.0273684 13.3051579 8.24747368 9.36957895 4.33789474 5.43263158 8.24747368 4.34063158 13.0273684 4.34063158 13.0273684 4.34063158 13.0287368 4.34063158 13.0287368 4.34063158 13.0287368 5.43263158 17.8086316 9.36957895 21.7195789 13.3051579 17.8086316 14.3998947 13.0287368 14.3998947 13.0287368"></polygon>
                    <polygon id="Path" points="12.1775789 22.3504211 9.36957895 21.7195789 13.3051579 17.8086316"></polygon>
                    <polygon id="Path" points="16.6837895 20.7274737 12.1775789 22.3504211 13.3051579 17.8086316 15.1525263 16.1391579"></polygon>
                    <polygon id="Path" points="4.33926316 13.0287368 4.34063158 13.0273684 4.33926316 13.0273684 3.58526316 9.91694737 0.132736842 13.0273684 0.132736842 13.0273684 0.132736842 13.0287368 0.132736842 13.0287368 0.132736842 13.0287368 3.58526316 16.1391579 4.33926316 13.0287368 4.34063158 13.0287368"></polygon>
                    <polygon id="Path" points="3.58526316 16.1391579 4.34063158 13.0273684 5.43263158 17.8086316"></polygon>
                    <polygon id="Path" points="18.6050526 13.0287368 18.6064211 13.0273684 18.6050526 13.0273684 15.1525263 9.91694737 14.4012632 13.0273684 14.3998947 13.0273684 14.3998947 13.0287368 14.3998947 13.0287368 14.4012632 13.0287368 15.1525263 16.1391579 18.6050526 13.0287368 18.6064211 13.0287368"></polygon>
                    <polygon id="Path" points="13.3051579 17.8086316 14.3998947 13.0273684 15.1525263 16.1391579"></polygon>
                    <polygon id="Path" points="17.9181053 17.0368421 15.1525263 16.1391579 16.6837895 20.7274737"></polygon>
                    <polygon id="Path" points="18.6064211 13.0273684 17.9181053 17.0368421 15.1525263 16.1391579"></polygon>
                    <path d="M13.6568421,24.3702105 L12.1789474,22.3504211 L9.36957895,26 C9.94482427,25.9845797 10.5141211,25.8793083 11.0568421,25.688 C12.7906316,25.0872632 13.6568421,24.3702105 13.6568421,24.3702105 Z" id="Path"></path>
                    <polygon id="Path" points="9.36957895 21.7195789 9.36957895 25.9931579 12.1775789 22.3504211"></polygon>
                    <path d="M16.6837895,20.7274737 C16.1242357,21.7919523 15.4006076,22.7617156 14.5394737,23.6011579 C14.0673684,24.0568421 13.6568421,24.3756842 13.6568421,24.3756842 L12.1789474,22.3504211 L16.6837895,20.7274737 Z" id="Path"></path>
                </g>
            </g>
        </g>
    </g>
</svg>