<?xml version="1.0" encoding="UTF-8"?>
<svg width="20px" height="28px" viewBox="0 0 20 28" version="1.1" xmlns="http://www.w3.org/2000/svg" xmlns:xlink="http://www.w3.org/1999/xlink">
    <title>shape-emerald</title>
    <g id="Symbols" stroke="none" stroke-width="1" fill="none" fill-rule="evenodd" stroke-linejoin="round">
        <g id="Desktop-Category-Navigation---Diamonds-Updated" transform="translate(-558.000000, -361.000000)" stroke="#333333">
            <g id="Group" transform="translate(278.000000, 239.000000)">
                <g id="shape-emerald" transform="translate(281.000000, 123.000000)">
                    <polygon id="Path" points="3.07666667 19.56714 5.63333333 22.5901639 6.76597701 20.5978209 4.8637931 18.3278689"></polygon>
                    <polygon id="Path" points="0.0552873563 21.5889029 3.73114943 26 5.63333333 22.5891551 3.07666667 19.6065574"></polygon>
                    <polygon id="Path" points="4.8637931 7.59625884 3.07666667 6.39344262 3.07666667 19.6065574 4.8637931 18.4037412"></polygon>
                    <polygon id="Path" points="3.07666667 6.25366485 0.0552873563 4.26229508 0.0552873563 21.7377049 3.07666667 19.7463351"></polygon>
                    <polygon id="Path" points="3.07666667 6.43241393 5.63333333 3.40983607 6.76597701 5.40136199 4.8637931 7.67213115"></polygon>
                    <polygon id="Path" points="0.0552873563 4.4110971 3.73114943 0 5.63333333 3.41235813 3.07666667 6.39344262"></polygon>
                    <polygon id="Path" points="12.5606897 22.5901639 5.63333333 22.5901639 3.73114943 26 14.4628736 26"></polygon>
                    <polygon id="Path" points="11.4265517 20.4590164 6.76597701 20.4590164 5.63333333 22.5901639 12.5606897 22.5901639"></polygon>
                    <polygon id="Path" points="15.1158621 19.56714 12.5606897 22.5901639 11.4265517 20.5978209 13.3302299 18.3278689"></polygon>
                    <polygon id="Path" points="18.1387356 21.5889029 14.4628736 26 12.5606897 22.5891551 15.1158621 19.6065574"></polygon>
                    <polygon id="Path" points="11.4265517 5.54098361 9.21206897 5.54098361 8.98195402 5.54098361 6.76597701 5.54098361 4.86528736 7.66775208 4.86528736 12.727038 4.86528736 12.8394341 4.86528736 18.3307882 6.76597701 20.4590164 8.98195402 20.4590164 9.21206897 20.4590164 11.4265517 20.4590164 13.3287356 18.3307882 13.3287356 12.8394341 13.3287356 12.727038 13.3287356 7.66775208"></polygon>
                    <polygon id="Path" points="13.3302299 7.59625884 15.1158621 6.39344262 15.1158621 19.6065574 13.3302299 18.4037412"></polygon>
                    <polygon id="Path" points="15.1158621 6.25366485 18.1387356 4.26229508 18.1387356 21.7377049 15.1158621 19.7463351"></polygon>
                    <polygon id="Path" points="3.73114943 0 5.63333333 3.40983607 12.5606897 3.40983607 14.4628736 0"></polygon>
                    <polygon id="Path" points="5.63333333 3.40983607 6.76597701 5.54098361 11.4265517 5.54098361 12.5606897 3.40983607"></polygon>
                    <polygon id="Path" points="15.1158621 6.43241393 12.5606897 3.40983607 11.4265517 5.40136199 13.3302299 7.67213115"></polygon>
                    <polygon id="Path" points="18.1387356 4.4110971 14.4628736 0 12.5606897 3.41235813 15.1158621 6.39344262"></polygon>
                </g>
            </g>
        </g>
    </g>
</svg>