<?xml version="1.0" encoding="UTF-8"?>
<svg width="27px" height="28px" viewBox="0 0 27 28" version="1.1" xmlns="http://www.w3.org/2000/svg" xmlns:xlink="http://www.w3.org/1999/xlink">
    <title>shape-heart</title>
    <g id="Symbols" stroke="none" stroke-width="1" fill="none" fill-rule="evenodd" stroke-linejoin="round">
        <g id="Desktop-Category-Navigation---Diamonds-Updated" transform="translate(-278.000000, -361.000000)" stroke="#333333">
            <g id="Group" transform="translate(278.000000, 239.000000)">
                <g id="shape-heart" transform="translate(1.000000, 123.000000)">
                    <polygon id="Path" points="9.36906977 5.60662791 12.504186 7.26337209 12.5011628 4.78581395"></polygon>
                    <path d="M8.97906977,0.618255814 C9.70986224,0.999697521 10.4080656,1.44056162 11.0666279,1.93639535 C12.0945349,2.6922093 12.5011628,3.25604651 12.5011628,3.25604651 L12.5011628,4.78581395 L8.97906977,0.618255814 Z" id="Path"></path>
                    <polygon id="Path" points="5.61116279 4.51976744 8.97906977 0.618255814 12.5011628 4.78581395 9.36906977 5.60662791"></polygon>
                    <polygon id="Path" points="5.41011628 7.34651163 9.39476744 5.62476744 5.61116279 4.51976744"></polygon>
                    <polygon id="Path" points="6.28383721 11.2555814 5.41011628 7.34651163 3.66116279 9.37662791"></polygon>
                    <polygon id="Path" points="5.25593023 14.767093 9.51116279 15.7587209 6.28383721 11.2555814"></polygon>
                    <polygon id="Path" points="12.4845349 19.3488372 9.51116279 15.7587209 10.0523256 20.5777907"></polygon>
                    <path d="M8.48325581,22.957093 C8.48325581,22.957093 9.50965116,23.842907 10.3969767,24.4460465 C11.2843023,25.049186 12.4845349,25.8715116 12.4845349,25.8715116 L10.0523256,20.580814 L8.48325581,22.957093 Z" id="Path"></path>
                    <polygon id="Path" points="5.39802326 20.0139535 10.0523256 20.5777907 8.48325581 22.957093"></polygon>
                    <polygon id="Path" points="5.25593023 14.767093 9.51116279 15.7587209 10.0523256 20.5777907 5.39802326 20.0139535"></polygon>
                    <path d="M2.59697674,16.5039535 L5.25593023,14.767093 L5.39802326,20.0139535 C5.39802326,20.0139535 4.40488372,18.8787209 3.83802326,18.2 C3.27116279,17.5212791 2.59697674,16.5039535 2.59697674,16.5039535 Z" id="Path"></path>
                    <path d="M1.00069767,13.2766279 L5.25593023,14.767093 L2.59697674,16.5039535 C2.59697674,16.5039535 1.81697674,15.262907 1.60383721,14.8411628 C1.39069767,14.4194186 1.00069767,13.2766279 1.00069767,13.2766279 Z" id="Path"></path>
                    <path d="M0.199534884,5.77290698 L3.66116279,9.37209302 L1.00069767,13.272093 C1.00069767,13.272093 0.244883721,10.7643023 0.149651163,9.58523256 C0.0451357252,8.31575807 0.0618391411,7.03921216 0.199534884,5.77290698 L0.199534884,5.77290698 Z" id="Path"></path>
                    <path d="M3.0927907,0.973488372 L5.61116279,4.51976744 L0.199534884,5.77290698 C0.199534884,5.77290698 0.604651163,3.94534884 1.36046512,2.86302326 C1.85929094,2.16537701 2.44099062,1.53088783 3.0927907,0.973488372 L3.0927907,0.973488372 Z" id="Path"></path>
                    <path d="M8.97906977,0.618255814 L5.61116279,4.51976744 L3.0927907,0.973488372 C3.0927907,0.973488372 3.8894186,0.420232558 5.32697674,0.15872093 C6.04226788,0.0272420291 6.77576138,0.0298048994 7.49011628,0.16627907 C8.00740988,0.236348461 8.51011412,0.388945992 8.97906977,0.618255814 Z" id="Path"></path>
                    <polygon id="Path" points="0.199534884 5.77290698 5.61116279 4.51976744 5.4055814 7.36465116 3.66116279 9.37662791"></polygon>
                    <polygon id="Path" points="1.00069767 13.2766279 3.66116279 9.37662791 6.28383721 11.2555814 5.25593023 14.767093"></polygon>
                    <polygon id="Path" points="15.5743023 5.62476744 12.504186 7.26337209 12.5011628 4.78581395"></polygon>
                    <path d="M15.9915116,0.618255814 C15.2616511,0.999651747 14.5644486,1.44052236 13.9069767,1.93639535 C12.8805814,2.6922093 12.5056977,3.25604651 12.5056977,3.25604651 L12.5056977,4.78581395 L15.9915116,0.618255814 Z" id="Path"></path>
                    <polygon id="Path" points="19.3594186 4.51976744 15.99 0.618255814 12.5011628 4.78581395 15.5743023 5.62476744"></polygon>
                    <polygon id="Path" points="19.5589535 7.34651163 15.5743023 5.62476744 19.3594186 4.51976744"></polygon>
                    <polygon id="Path" points="18.6852326 11.2555814 19.5589535 7.34651163 21.3094186 9.37662791"></polygon>
                    <polygon id="Path" points="19.7131395 14.767093 15.4594186 15.7587209 18.6852326 11.2555814"></polygon>
                    <polygon id="Path" points="12.4845349 19.3488372 15.4594186 15.7587209 14.9167442 20.5777907"></polygon>
                    <polygon id="Path" points="14.9167442 20.5777907 12.4845349 19.3488372 10.0523256 20.5777907 12.4845349 25.8715116"></polygon>
                    <path d="M16.4873256,22.957093 C16.4873256,22.957093 15.4594186,23.842907 14.572093,24.4460465 C13.6847674,25.049186 12.4845349,25.8715116 12.4845349,25.8715116 L14.9167442,20.580814 L16.4873256,22.957093 Z" id="Path"></path>
                    <polygon id="Path" points="19.5710465 20.0139535 14.9167442 20.5777907 16.4873256 22.957093"></polygon>
                    <polygon id="Path" points="19.7131395 14.767093 15.4594186 15.7587209 14.9167442 20.5777907 19.5710465 20.0139535"></polygon>
                    <path d="M22.372093,16.5039535 L19.7116279,14.767093 L19.5710465,20.0139535 C19.5710465,20.0139535 20.5626744,18.8787209 21.1295349,18.2 C21.6963953,17.5212791 22.372093,16.5039535 22.372093,16.5039535 Z" id="Path"></path>
                    <path d="M23.9683721,13.2766279 L19.7131395,14.767093 L22.372093,16.5039535 C22.372093,16.5039535 23.1505814,15.262907 23.3637209,14.8411628 C23.5768605,14.4194186 23.9683721,13.2766279 23.9683721,13.2766279 Z" id="Path"></path>
                    <path d="M24.7710465,5.77290698 L21.3139535,9.37209302 L23.9744186,13.272093 C23.9744186,13.272093 24.7302326,10.7643023 24.8254651,9.58523256 C24.9279716,8.31559736 24.9097504,7.03909904 24.7710465,5.77290698 L24.7710465,5.77290698 Z" id="Path"></path>
                    <path d="M21.8762791,0.973488372 L19.3594186,4.51976744 L24.7710465,5.77290698 C24.7710465,5.77290698 24.3659302,3.94534884 23.6116279,2.86302326 C23.1118629,2.16520194 22.5291412,1.53070529 21.8762791,0.973488372 L21.8762791,0.973488372 Z" id="Path"></path>
                    <path d="M15.9915116,0.618255814 L19.3594186,4.51976744 L21.8762791,0.973488372 C21.8762791,0.973488372 21.2716279,0.470116279 19.8401163,0.208604651 C19.0610811,0.0614384728 18.2627626,0.047128025 17.4789535,0.16627907 C16.9620989,0.236146916 16.4598607,0.388757907 15.9915116,0.618255814 Z" id="Path"></path>
                    <polygon id="Path" points="15.5743023 5.62476744 12.504186 7.26337209 9.39476744 5.62476744 5.41011628 7.34651163 6.28383721 11.2555814 9.51116279 15.7587209 12.4845349 19.3488372 15.4594186 15.7587209 18.6852326 11.2555814 19.5589535 7.34651163"></polygon>
                    <polygon id="Path" points="24.7710465 5.77290698 19.3594186 4.51976744 19.5634884 7.36465116 21.3094186 9.37662791"></polygon>
                    <polygon id="Path" points="23.9683721 13.2766279 21.3094186 9.37662791 18.6852326 11.2555814 19.7131395 14.767093"></polygon>
                </g>
            </g>
        </g>
    </g>
</svg>