<svg id="Layer_1" data-name="Layer 1" xmlns="http://www.w3.org/2000/svg" viewBox="0 0 198.57 214.49"><defs><style>.cls-1,.cls-2{fill:none;}.cls-1{stroke:#000;stroke-linejoin:round;stroke-width:4px;}</style></defs><title>shape-cushion</title><g id="Diamonds"><polygon class="cls-1" points="45.97 79.72 67.59 74.33 66.31 107.15 45.97 79.72"/><path class="cls-2" d="M21.69,68.17,46,79.72,18.64,107.15s.89-15.22,1.29-20.28C20.3,82.19,21.69,68.17,21.69,68.17Z"/><path class="cls-1" d="M21.69,68.17,46,79.72,18.64,107.15s.89-15.22,1.29-20.28C20.3,82.19,21.69,68.17,21.69,68.17Z"/><path class="cls-1" d="M31.87,38.61,46,79.72,21.69,68.17s2.15-13.25,5.93-22C30.67,39.09,31.87,38.61,31.87,38.61Z"/><polygon class="cls-1" points="72.97 52.69 67.59 74.33 100.34 73.03 72.97 52.69"/><path class="cls-1" d="M61.42,28.42,73,52.69l27.37-27.31s-14.15.73-18.5,1.09C71.35,27.36,61.42,28.42,61.42,28.42Z"/><path class="cls-2" d="M31.87,38.61,73,52.69,61.42,28.42s-12.9,1.47-21.65,5.25C32.7,36.73,31.87,38.61,31.87,38.61Z"/><path class="cls-1" d="M31.87,38.61,73,52.69,61.42,28.42s-12.9,1.47-21.65,5.25C32.7,36.73,31.87,38.61,31.87,38.61Z"/><polygon class="cls-2" points="31.87 38.61 45.97 79.72 67.59 74.33 72.97 52.69 31.87 38.61"/><polygon class="cls-1" points="31.87 38.61 45.97 79.72 67.59 74.33 72.97 52.69 31.87 38.61"/><polygon class="cls-1" points="154.71 79.72 133.09 74.33 134.37 107.15 154.71 79.72"/><path class="cls-2" d="M179,68.17,154.71,79.72,182,107.15s-.9-15.22-1.29-20.28C180.38,82.19,179,68.17,179,68.17Z"/><path class="cls-1" d="M179,68.17,154.71,79.72,182,107.15s-.9-15.22-1.29-20.28C180.38,82.19,179,68.17,179,68.17Z"/><path class="cls-1" d="M168.81,38.61l-14.1,41.11L179,68.17s-2.14-13.25-5.92-22C170,39.09,168.81,38.61,168.81,38.61Z"/><polygon class="cls-1" points="127.7 52.69 133.09 74.33 100.34 73.03 127.7 52.69"/><polygon class="cls-1" points="100.34 73.03 127.7 52.69 100.34 25.39 100.34 25.39 100.34 25.39 100.34 25.39 100.34 25.39 72.97 52.69 100.34 73.03 100.34 73.03 100.34 73.03 100.34 73.03 100.34 73.03"/><path class="cls-2" d="M139.26,28.42,127.71,52.69,100.34,25.38s14.14.73,18.49,1.09C129.32,27.36,139.26,28.42,139.26,28.42Z"/><path class="cls-1" d="M139.26,28.42,127.71,52.69,100.34,25.38s14.14.73,18.49,1.09C129.32,27.36,139.26,28.42,139.26,28.42Z"/><path class="cls-1" d="M168.81,38.61l-41.1,14.08,11.55-24.27s12.89,1.47,21.65,5.25C168,36.73,168.81,38.61,168.81,38.61Z"/><polygon class="cls-2" points="168.81 38.61 154.71 79.72 133.09 74.33 127.7 52.69 168.81 38.61"/><polygon class="cls-1" points="168.81 38.61 154.71 79.72 133.09 74.33 127.7 52.69 168.81 38.61"/><polygon class="cls-1" points="45.97 134.58 67.59 139.97 66.31 107.15 45.97 134.58"/><polygon class="cls-2" points="45.97 79.72 18.64 107.15 45.97 134.58 66.31 107.15 45.97 79.72"/><polygon class="cls-1" points="45.97 79.72 18.64 107.15 45.97 134.58 66.31 107.15 45.97 79.72"/><path class="cls-2" d="M21.69,146.13,46,134.58,18.64,107.15s.89,15.22,1.29,20.28C20.3,132.11,21.69,146.13,21.69,146.13Z"/><path class="cls-1" d="M21.69,146.13,46,134.58,18.64,107.15s.89,15.22,1.29,20.28C20.3,132.11,21.69,146.13,21.69,146.13Z"/><path class="cls-2" d="M31.87,175.69,46,134.58,21.69,146.13s2.15,13.25,5.93,22C30.67,175.21,31.87,175.69,31.87,175.69Z"/><path class="cls-1" d="M31.87,175.69,46,134.58,21.69,146.13s2.15,13.25,5.93,22C30.67,175.21,31.87,175.69,31.87,175.69Z"/><polygon class="cls-1" points="72.97 161.61 67.59 139.97 100.34 141.27 72.97 161.61"/><path class="cls-2" d="M61.42,185.88,73,161.61l27.37,27.3s-14.15-.72-18.5-1.08C71.35,186.94,61.42,185.88,61.42,185.88Z"/><path class="cls-1" d="M61.42,185.88,73,161.61l27.37,27.3s-14.15-.72-18.5-1.08C71.35,186.94,61.42,185.88,61.42,185.88Z"/><path class="cls-2" d="M31.87,175.69,73,161.61,61.42,185.88s-12.9-1.47-21.65-5.26C32.7,177.57,31.87,175.69,31.87,175.69Z"/><path class="cls-1" d="M31.87,175.69,73,161.61,61.42,185.88s-12.9-1.47-21.65-5.26C32.7,177.57,31.87,175.69,31.87,175.69Z"/><polygon class="cls-2" points="31.87 175.69 45.97 134.58 67.59 139.97 72.97 161.61 31.87 175.69"/><polygon class="cls-1" points="31.87 175.69 45.97 134.58 67.59 139.97 72.97 161.61 31.87 175.69"/><polygon class="cls-1" points="154.71 134.58 133.09 139.97 134.37 107.15 154.71 134.58"/><polygon class="cls-2" points="154.71 79.72 134.37 107.15 154.71 134.58 182.04 107.15 154.71 79.72"/><polygon class="cls-1" points="154.71 79.72 134.37 107.15 154.71 134.58 182.04 107.15 154.71 79.72"/><path class="cls-2" d="M179,146.13l-24.27-11.55L182,107.15s-.9,15.22-1.29,20.28C180.38,132.11,179,146.13,179,146.13Z"/><path class="cls-1" d="M179,146.13l-24.27-11.55L182,107.15s-.9,15.22-1.29,20.28C180.38,132.11,179,146.13,179,146.13Z"/><path class="cls-2" d="M168.81,175.69l-14.1-41.11L179,146.13s-2.14,13.25-5.92,22C170,175.21,168.81,175.69,168.81,175.69Z"/><path class="cls-1" d="M168.81,175.69l-14.1-41.11L179,146.13s-2.14,13.25-5.92,22C170,175.21,168.81,175.69,168.81,175.69Z"/><polygon class="cls-1" points="127.7 161.61 133.09 139.97 100.34 141.27 127.7 161.61"/><polygon class="cls-2" points="100.34 141.27 127.7 161.61 100.34 188.91 100.34 188.91 100.34 188.91 100.34 188.91 100.34 188.91 72.97 161.61 100.34 141.27 100.34 141.27 100.34 141.27 100.34 141.27 100.34 141.27"/><polygon class="cls-1" points="100.34 141.27 127.7 161.61 100.34 188.91 100.34 188.91 100.34 188.91 100.34 188.91 100.34 188.91 72.97 161.61 100.34 141.27 100.34 141.27 100.34 141.27 100.34 141.27 100.34 141.27"/><path class="cls-2" d="M139.26,185.88l-11.55-24.27-27.37,27.3s14.14-.72,18.49-1.08C129.32,186.94,139.26,185.88,139.26,185.88Z"/><path class="cls-1" d="M139.26,185.88l-11.55-24.27-27.37,27.3s14.14-.72,18.49-1.08C129.32,186.94,139.26,185.88,139.26,185.88Z"/><path class="cls-2" d="M168.81,175.69l-41.1-14.08,11.55,24.27s12.89-1.47,21.65-5.26C168,177.57,168.81,175.69,168.81,175.69Z"/><path class="cls-1" d="M168.81,175.69l-41.1-14.08,11.55,24.27s12.89-1.47,21.65-5.26C168,177.57,168.81,175.69,168.81,175.69Z"/><polygon class="cls-2" points="133.09 74.33 100.34 73.03 100.34 73.03 100.34 73.03 100.34 73.03 100.34 73.03 67.59 74.33 66.31 107.15 67.59 139.97 100.34 141.27 100.34 141.27 100.34 141.27 100.34 141.27 100.34 141.27 133.09 139.97 134.37 107.15 133.09 74.33"/><polygon class="cls-1" points="133.09 74.33 100.34 73.03 100.34 73.03 100.34 73.03 100.34 73.03 100.34 73.03 67.59 74.33 66.31 107.15 67.59 139.97 100.34 141.27 100.34 141.27 100.34 141.27 100.34 141.27 100.34 141.27 133.09 139.97 134.37 107.15 133.09 74.33"/><polygon class="cls-2" points="168.81 175.69 154.71 134.58 133.09 139.97 127.7 161.61 168.81 175.69"/><polygon class="cls-1" points="168.81 175.69 154.71 134.58 133.09 139.97 127.7 161.61 168.81 175.69"/></g><g id="Diamonds-2" data-name="Diamonds"><polygon class="cls-1" points="45.97 79.72 67.59 74.33 66.31 107.15 45.97 79.72"/><path class="cls-2" d="M21.69,68.17,46,79.72,18.64,107.15s.89-15.22,1.29-20.28C20.3,82.19,21.69,68.17,21.69,68.17Z"/><path class="cls-1" d="M21.69,68.17,46,79.72,18.64,107.15s.89-15.22,1.29-20.28C20.3,82.19,21.69,68.17,21.69,68.17Z"/><path class="cls-1" d="M31.87,38.61,46,79.72,21.69,68.17s2.15-13.25,5.93-22C30.67,39.09,31.87,38.61,31.87,38.61Z"/><polygon class="cls-1" points="72.97 52.69 67.59 74.33 100.34 73.03 72.97 52.69"/><path class="cls-1" d="M61.42,28.42,73,52.69l27.37-27.31s-14.15.73-18.5,1.09C71.35,27.36,61.42,28.42,61.42,28.42Z"/><path class="cls-2" d="M31.87,38.61,73,52.69,61.42,28.42s-12.9,1.47-21.65,5.25C32.7,36.73,31.87,38.61,31.87,38.61Z"/><path class="cls-1" d="M31.87,38.61,73,52.69,61.42,28.42s-12.9,1.47-21.65,5.25C32.7,36.73,31.87,38.61,31.87,38.61Z"/><polygon class="cls-2" points="31.87 38.61 45.97 79.72 67.59 74.33 72.97 52.69 31.87 38.61"/><polygon class="cls-1" points="31.87 38.61 45.97 79.72 67.59 74.33 72.97 52.69 31.87 38.61"/><polygon class="cls-1" points="154.71 79.72 133.09 74.33 134.37 107.15 154.71 79.72"/><path class="cls-2" d="M179,68.17,154.71,79.72,182,107.15s-.9-15.22-1.29-20.28C180.38,82.19,179,68.17,179,68.17Z"/><path class="cls-1" d="M179,68.17,154.71,79.72,182,107.15s-.9-15.22-1.29-20.28C180.38,82.19,179,68.17,179,68.17Z"/><path class="cls-1" d="M168.81,38.61l-14.1,41.11L179,68.17s-2.14-13.25-5.92-22C170,39.09,168.81,38.61,168.81,38.61Z"/><polygon class="cls-1" points="127.7 52.69 133.09 74.33 100.34 73.03 127.7 52.69"/><polygon class="cls-1" points="100.34 73.03 127.7 52.69 100.34 25.39 100.34 25.39 100.34 25.39 100.34 25.39 100.34 25.39 72.97 52.69 100.34 73.03 100.34 73.03 100.34 73.03 100.34 73.03 100.34 73.03"/><path class="cls-2" d="M139.26,28.42,127.71,52.69,100.34,25.38s14.14.73,18.49,1.09C129.32,27.36,139.26,28.42,139.26,28.42Z"/><path class="cls-1" d="M139.26,28.42,127.71,52.69,100.34,25.38s14.14.73,18.49,1.09C129.32,27.36,139.26,28.42,139.26,28.42Z"/><path class="cls-1" d="M168.81,38.61l-41.1,14.08,11.55-24.27s12.89,1.47,21.65,5.25C168,36.73,168.81,38.61,168.81,38.61Z"/><polygon class="cls-2" points="168.81 38.61 154.71 79.72 133.09 74.33 127.7 52.69 168.81 38.61"/><polygon class="cls-1" points="168.81 38.61 154.71 79.72 133.09 74.33 127.7 52.69 168.81 38.61"/><polygon class="cls-1" points="45.97 134.58 67.59 139.97 66.31 107.15 45.97 134.58"/><polygon class="cls-2" points="45.97 79.72 18.64 107.15 45.97 134.58 66.31 107.15 45.97 79.72"/><polygon class="cls-1" points="45.97 79.72 18.64 107.15 45.97 134.58 66.31 107.15 45.97 79.72"/><path class="cls-2" d="M21.69,146.13,46,134.58,18.64,107.15s.89,15.22,1.29,20.28C20.3,132.11,21.69,146.13,21.69,146.13Z"/><path class="cls-1" d="M21.69,146.13,46,134.58,18.64,107.15s.89,15.22,1.29,20.28C20.3,132.11,21.69,146.13,21.69,146.13Z"/><path class="cls-2" d="M31.87,175.69,46,134.58,21.69,146.13s2.15,13.25,5.93,22C30.67,175.21,31.87,175.69,31.87,175.69Z"/><path class="cls-1" d="M31.87,175.69,46,134.58,21.69,146.13s2.15,13.25,5.93,22C30.67,175.21,31.87,175.69,31.87,175.69Z"/><polygon class="cls-1" points="72.97 161.61 67.59 139.97 100.34 141.27 72.97 161.61"/><path class="cls-2" d="M61.42,185.88,73,161.61l27.37,27.3s-14.15-.72-18.5-1.08C71.35,186.94,61.42,185.88,61.42,185.88Z"/><path class="cls-1" d="M61.42,185.88,73,161.61l27.37,27.3s-14.15-.72-18.5-1.08C71.35,186.94,61.42,185.88,61.42,185.88Z"/><path class="cls-2" d="M31.87,175.69,73,161.61,61.42,185.88s-12.9-1.47-21.65-5.26C32.7,177.57,31.87,175.69,31.87,175.69Z"/><path class="cls-1" d="M31.87,175.69,73,161.61,61.42,185.88s-12.9-1.47-21.65-5.26C32.7,177.57,31.87,175.69,31.87,175.69Z"/><polygon class="cls-2" points="31.87 175.69 45.97 134.58 67.59 139.97 72.97 161.61 31.87 175.69"/><polygon class="cls-1" points="31.87 175.69 45.97 134.58 67.59 139.97 72.97 161.61 31.87 175.69"/><polygon class="cls-1" points="154.71 134.58 133.09 139.97 134.37 107.15 154.71 134.58"/><polygon class="cls-2" points="154.71 79.72 134.37 107.15 154.71 134.58 182.04 107.15 154.71 79.72"/><polygon class="cls-1" points="154.71 79.72 134.37 107.15 154.71 134.58 182.04 107.15 154.71 79.72"/><path class="cls-2" d="M179,146.13l-24.27-11.55L182,107.15s-.9,15.22-1.29,20.28C180.38,132.11,179,146.13,179,146.13Z"/><path class="cls-1" d="M179,146.13l-24.27-11.55L182,107.15s-.9,15.22-1.29,20.28C180.38,132.11,179,146.13,179,146.13Z"/><path class="cls-2" d="M168.81,175.69l-14.1-41.11L179,146.13s-2.14,13.25-5.92,22C170,175.21,168.81,175.69,168.81,175.69Z"/><path class="cls-1" d="M168.81,175.69l-14.1-41.11L179,146.13s-2.14,13.25-5.92,22C170,175.21,168.81,175.69,168.81,175.69Z"/><polygon class="cls-1" points="127.7 161.61 133.09 139.97 100.34 141.27 127.7 161.61"/><polygon class="cls-2" points="100.34 141.27 127.7 161.61 100.34 188.91 100.34 188.91 100.34 188.91 100.34 188.91 100.34 188.91 72.97 161.61 100.34 141.27 100.34 141.27 100.34 141.27 100.34 141.27 100.34 141.27"/><polygon class="cls-1" points="100.34 141.27 127.7 161.61 100.34 188.91 100.34 188.91 100.34 188.91 100.34 188.91 100.34 188.91 72.97 161.61 100.34 141.27 100.34 141.27 100.34 141.27 100.34 141.27 100.34 141.27"/><path class="cls-2" d="M139.26,185.88l-11.55-24.27-27.37,27.3s14.14-.72,18.49-1.08C129.32,186.94,139.26,185.88,139.26,185.88Z"/><path class="cls-1" d="M139.26,185.88l-11.55-24.27-27.37,27.3s14.14-.72,18.49-1.08C129.32,186.94,139.26,185.88,139.26,185.88Z"/><path class="cls-2" d="M168.81,175.69l-41.1-14.08,11.55,24.27s12.89-1.47,21.65-5.26C168,177.57,168.81,175.69,168.81,175.69Z"/><path class="cls-1" d="M168.81,175.69l-41.1-14.08,11.55,24.27s12.89-1.47,21.65-5.26C168,177.57,168.81,175.69,168.81,175.69Z"/><polygon class="cls-2" points="133.09 74.33 100.34 73.03 100.34 73.03 100.34 73.03 100.34 73.03 100.34 73.03 67.59 74.33 66.31 107.15 67.59 139.97 100.34 141.27 100.34 141.27 100.34 141.27 100.34 141.27 100.34 141.27 133.09 139.97 134.37 107.15 133.09 74.33"/><polygon class="cls-1" points="133.09 74.33 100.34 73.03 100.34 73.03 100.34 73.03 100.34 73.03 100.34 73.03 67.59 74.33 66.31 107.15 67.59 139.97 100.34 141.27 100.34 141.27 100.34 141.27 100.34 141.27 100.34 141.27 133.09 139.97 134.37 107.15 133.09 74.33"/><polygon class="cls-2" points="168.81 175.69 154.71 134.58 133.09 139.97 127.7 161.61 168.81 175.69"/><polygon class="cls-1" points="168.81 175.69 154.71 134.58 133.09 139.97 127.7 161.61 168.81 175.69"/></g></svg>